<svg width="648" height="54" viewBox="0 0 648 54" fill="none" xmlns="http://www.w3.org/2000/svg">
<rect x="0.177049" y="0.177049" width="53.6459" height="53.6459" stroke="black" stroke-width="0.354098"/>
<path d="M27.1612 46.023C16.9632 46.023 10.3238 39.4368 10.3238 26.9548C10.3238 14.3666 17.1756 7.83348 27.1081 7.83348C34.3848 7.83348 39.8025 11.2328 41.2897 17.8722H36.9343C35.5533 13.7823 32.0477 11.6577 27.1081 11.6577C19.3533 11.6577 14.6792 16.9692 14.6792 26.8486C14.6792 36.781 19.4596 42.1987 27.2143 42.1987C33.7474 42.1987 38.2622 38.3745 38.2622 30.0355H28.914V26.4236H42.5645V29.0263C42.5645 40.1804 36.8281 46.023 27.1612 46.023Z" fill="black"/>
<rect x="54.177" y="0.177049" width="53.6459" height="53.6459" stroke="black" stroke-width="0.354098"/>
<path d="M78.3733 46.377V9.1967H82.7287V46.377H78.3733Z" fill="black"/>
<rect x="108.177" y="0.177049" width="53.6459" height="53.6459" stroke="black" stroke-width="0.354098"/>
<path d="M134.565 46.9082C124.898 46.9082 117.727 40.1095 117.727 27.7869C117.727 15.4642 124.898 8.71867 134.565 8.71867C144.232 8.71867 151.455 15.4642 151.455 27.7869C151.455 40.1095 144.232 46.9082 134.565 46.9082ZM134.565 43.0839C141.788 43.0839 146.994 37.8787 146.994 27.7869C146.994 17.6951 141.788 12.5429 134.565 12.5429C127.394 12.5429 122.189 17.6951 122.189 27.7869C122.189 37.8787 127.394 43.0839 134.565 43.0839Z" fill="black"/>
<rect x="162.177" y="0.177049" width="53.6459" height="53.6459" stroke="black" stroke-width="0.354098"/>
<path d="M175.766 46.377V9.1967H189.31C198.021 9.1967 202.43 13.5521 202.43 20.6695C202.43 26.2997 199.561 30.2301 193.931 31.5049L202.695 46.377H198.287L189.841 32.036H180.121V46.377H175.766ZM189.151 28.1587C194.993 28.1587 197.968 25.5029 197.968 20.6695C197.968 15.7298 194.993 13.0741 189.151 13.0741H180.121V28.1587H189.151Z" fill="black"/>
<rect x="432.177" y="0.177049" width="53.6459" height="53.6459" stroke="black" stroke-width="0.354098"/>
<path d="M447.529 46.377V9.1967H451.885V42.4997H470.953V46.377H447.529Z" fill="black"/>
<rect x="486.177" y="0.177049" width="53.6459" height="53.6459" stroke="black" stroke-width="0.354098"/>
<path d="M512.55 46.9082C503.786 46.9082 498.262 41.7029 498.262 32.3016V9.1967H502.67V32.036C502.67 39.1534 506.335 43.0308 512.55 43.0308C518.764 43.0308 522.429 39.1534 522.429 32.036V9.1967H526.837V32.3016C526.837 41.7029 521.26 46.9082 512.55 46.9082Z" fill="black"/>
<rect x="540.177" y="0.177049" width="53.6459" height="53.6459" stroke="black" stroke-width="0.354098"/>
<path d="M553.922 46.377V9.1967H567.466C576.177 9.1967 580.585 13.5521 580.585 20.6695C580.585 27.6806 576.177 32.036 567.466 32.036H558.277V46.377H553.922ZM567.306 28.1587C573.149 28.1587 576.123 25.5029 576.123 20.6695C576.123 15.7298 573.149 13.0741 567.306 13.0741H558.277V28.1587H567.306Z" fill="black"/>
<rect x="594.177" y="0.177049" width="53.6459" height="53.6459" stroke="black" stroke-width="0.354098"/>
<path d="M618.373 46.377V9.1967H622.729V46.377H618.373Z" fill="black"/>
<rect x="216.177" y="0.177049" width="53.6459" height="53.6459" stroke="black" stroke-width="0.354098"/>
<path d="M243.161 46.023C232.963 46.023 226.324 39.4368 226.324 26.9548C226.324 14.3666 233.176 7.83348 243.108 7.83348C250.385 7.83348 255.803 11.2328 257.29 17.8722H252.934C251.553 13.7823 248.048 11.6577 243.108 11.6577C235.353 11.6577 230.679 16.9692 230.679 26.8486C230.679 36.781 235.46 42.1987 243.214 42.1987C249.747 42.1987 254.262 38.3745 254.262 30.0355H244.914V26.4236H258.564V29.0263C258.564 40.1804 252.828 46.023 243.161 46.023Z" fill="black"/>
<rect x="270.177" y="0.177049" width="53.6459" height="53.6459" stroke="black" stroke-width="0.354098"/>
<path d="M294.373 46.377V9.1967H298.729V46.377H294.373Z" fill="black"/>
<rect x="324.177" y="0.177049" width="53.6459" height="53.6459" stroke="black" stroke-width="0.354098"/>
<path d="M333.676 46.377L347.858 9.1967H353.276L367.457 46.377H362.836L359.384 37.082H341.75L338.297 46.377H333.676ZM343.025 33.6826H358.109L350.726 13.9239H350.408L343.025 33.6826Z" fill="black"/>
<rect x="378.177" y="0.177049" width="53.6459" height="53.6459" stroke="black" stroke-width="0.354098"/>
</svg>
